<svg xmlns="http://www.w3.org/2000/svg" viewBox="0 0 512 110">
  <defs>
    <linearGradient id="meta-grad" x1="0%" y1="0%" x2="100%" y2="0%">
      <stop offset="0%" style="stop-color:#0081FB"/>
      <stop offset="100%" style="stop-color:#0064E0"/>
    </linearGradient>
  </defs>
  <path d="M60 20c-14 0-22 12-30 24C22 32 14 20 0 20v70h16V48c8-12 14-18 20-18s10 6 14 14l10 18 10-18c4-8 8-14 14-14s12 6 20 18v42h16V20c-14 0-22 12-30 24-8-12-16-24-30-24z" fill="url(#meta-grad)" transform="translate(5,10) scale(0.9)"/>
  <text x="120" y="75" font-family="Helvetica Neue, Arial, sans-serif" font-size="56" font-weight="700" fill="#0081FB">Meta</text>
</svg>